<svg width="23" height="22" viewBox="0 0 23 22" fill="none" xmlns="http://www.w3.org/2000/svg">
<path d="M20.4333 18.5992L16.9557 15.2259C18.3056 13.5799 18.9593 11.4907 18.7824 9.38789C18.6056 7.28506 17.6116 5.32842 16.0048 3.92029C14.398 2.51217 12.3006 1.75959 10.1439 1.8173C7.98716 1.87501 5.935 2.73863 4.40938 4.23058C2.88376 5.72253 2.00065 7.7294 1.94164 9.83855C1.88262 11.9477 2.65218 13.9988 4.09209 15.5701C5.53199 17.1414 7.53279 18.1135 9.68308 18.2864C11.8334 18.4594 13.9697 17.8201 15.6528 16.5L19.1023 19.8734C19.1894 19.9593 19.2931 20.0275 19.4073 20.074C19.5215 20.1206 19.644 20.1445 19.7678 20.1445C19.8915 20.1445 20.014 20.1206 20.1283 20.074C20.2425 20.0275 20.3462 19.9593 20.4333 19.8734C20.6022 19.7024 20.6967 19.474 20.6967 19.2363C20.6967 18.9986 20.6022 18.7701 20.4333 18.5992ZM10.3942 16.5C9.09651 16.5 7.82792 16.1237 6.74889 15.4186C5.66986 14.7136 4.82886 13.7114 4.33224 12.5389C3.83561 11.3664 3.70567 10.0763 3.95885 8.83154C4.21203 7.58683 4.83695 6.44349 5.75459 5.5461C6.67222 4.64871 7.84137 4.03758 9.11417 3.79C10.387 3.54241 11.7063 3.66948 12.9052 4.15514C14.1042 4.6408 15.1289 5.46324 15.8499 6.51846C16.5709 7.57367 16.9557 8.81427 16.9557 10.0834C16.9557 11.7852 16.2644 13.4173 15.0339 14.6206C13.8034 15.824 12.1345 16.5 10.3942 16.5Z" fill="black" fill-opacity="0.5"/>
</svg>
