<?xml version="1.0" encoding="UTF-8" standalone="no"?>
<!-- Created with Inkscape (http://www.inkscape.org/) -->

<svg
   xmlns:dc="http://purl.org/dc/elements/1.1/"
   xmlns:cc="http://creativecommons.org/ns#"
   xmlns:rdf="http://www.w3.org/1999/02/22-rdf-syntax-ns#"
   xmlns:svg="http://www.w3.org/2000/svg"
   xmlns="http://www.w3.org/2000/svg"
   xmlns:sodipodi="http://sodipodi.sourceforge.net/DTD/sodipodi-0.dtd"
   xmlns:inkscape="http://www.inkscape.org/namespaces/inkscape"
   id="svg2"
   version="1.1"
   inkscape:version="0.91 r13725"
   xml:space="preserve"
   width="700"
   height="265"
   viewBox="0 0 700 265"
   sodipodi:docname="Logo B'Twin.svg"><metadata
     id="metadata8"><rdf:RDF><cc:Work
         rdf:about=""><dc:format>image/svg+xml</dc:format><dc:type
           rdf:resource="http://purl.org/dc/dcmitype/StillImage" /><dc:title></dc:title></cc:Work></rdf:RDF></metadata><defs
     id="defs6" /><sodipodi:namedview
     pagecolor="#ffffff"
     bordercolor="#666666"
     borderopacity="1"
     objecttolerance="10"
     gridtolerance="10"
     guidetolerance="10"
     inkscape:pageopacity="0"
     inkscape:pageshadow="2"
     inkscape:window-width="1440"
     inkscape:window-height="788"
     id="namedview4"
     showgrid="false"
     inkscape:zoom="0.70246254"
     inkscape:cx="49.328743"
     inkscape:cy="341.35495"
     inkscape:window-x="0"
     inkscape:window-y="1"
     inkscape:window-maximized="1"
     inkscape:current-layer="g10" /><g
     id="g10"
     inkscape:groupmode="layer"
     inkscape:label="Logo"
     transform="matrix(1.25,0,0,-1.25,0,265.00003)"><g
       id="g5181"><g
         id="g5168"><path
           d="m 319.12322,132.61595 c 0,-3.01778 1.17877,-5.8818 3.31323,-8.0253 l 29.50853,-29.505517 c 2.13144,-2.13144 4.98642,-3.3283 8.00721,-3.3283 3.0419,0 5.8788,1.19686 8.01627,3.3283 l 3.53933,3.51824 c 4.40759,4.437727 4.40759,11.624927 0,16.044577 l -29.50551,29.49345 c -2.1435,2.15556 -4.98944,3.32831 -8.01928,3.32831 -3.03285,0 -5.87578,-1.17275 -8.00722,-3.32831 l -3.53933,-3.50014 c -2.13446,-2.15556 -3.31323,-4.99547 -3.31323,-8.02531"
           style="fill:#231f20;fill-opacity:1;fill-rule:nonzero;stroke:none"
           id="path32"
           inkscape:connector-curvature="0" /><path
           d="m 333.97034,155.84744 c 3.02984,0 5.87578,1.19083 8.01928,3.31624 l 29.50551,29.51757 c 2.1435,2.12541 3.3283,4.96834 3.3283,8.00722 0,3.02984 -1.1848,5.88181 -3.3283,8.01023 l -3.52426,3.53934 c -4.41362,4.42568 -11.60685,4.42568 -16.0265,0 l -29.50551,-29.51757 c -2.14953,-2.12541 -3.3283,-4.97738 -3.3283,-8.01928 0,-3.04491 1.17877,-5.87578 3.3283,-7.99516 l 3.53632,-3.54235 c 2.11938,-2.12541 4.97738,-3.31624 7.99516,-3.31624"
           style="fill:#00a8c8;fill-opacity:1;fill-rule:nonzero;stroke:none"
           id="path34"
           inkscape:connector-curvature="0" /><path
           d="m 310.71443,170.69486 c 0,3.03587 -1.17877,5.8999 -3.3283,8.01325 l -29.50551,29.51757 c -2.1435,2.13144 -4.98642,3.32227 -8.00722,3.32227 -3.0419,0 -5.87879,-1.19083 -8.03133,-3.32227 l -3.51221,-3.52426 c -4.41964,-4.43171 -4.41964,-11.60685 0,-16.02047 l 29.50552,-29.52963 c 2.13144,-2.13144 4.98943,-3.30418 8.00721,-3.30418 3.03286,0 5.87578,1.17274 8.01928,3.30418 l 3.52426,3.53029 c 2.14953,2.13747 3.3283,4.97738 3.3283,8.01325"
           style="fill:#231f20;fill-opacity:1;fill-rule:nonzero;stroke:none"
           id="path36"
           inkscape:connector-curvature="0" /><path
           d="m 295.85586,147.4688 c -3.02984,0 -5.88784,-1.1848 -8.01928,-3.3283 l -29.50551,-29.49346 c -2.1435,-2.14952 -3.31624,-4.98039 -3.31624,-8.01927 0,-3.0419 1.17274,-5.86975 3.31624,-8.025307 l 3.52426,-3.51823 c 4.42568,-4.41362 11.61891,-4.41362 16.0265,0 l 29.51757,29.505507 c 2.13747,2.1435 3.31624,4.98944 3.31624,8.01325 0,3.04491 -1.17877,5.87578 -3.31624,8.02531 l -3.53632,3.5122 c -2.1435,2.1435 -4.97738,3.3283 -8.00722,3.3283"
           style="fill:#231f20;fill-opacity:1;fill-rule:nonzero;stroke:none"
           id="path38"
           inkscape:connector-curvature="0" /></g><g
         id="g5174"><path
           d="m 93.51502,34.688221 c 5.49592,1.48025 16.76813,3.780516 20.77777,13.946307 1.04914,3.382565 0.88634,5.845635 -0.52155,7.741915 -2.11939,2.87308 -8.64032,6.30991 -27.69364,6.30991 l -66.7017,0 L 0,3.244375e-4 l 63.95826,0 c 34.24774,0 41.51332,9.2673909625 44.00654,17.3168155625 1.04311,3.388597 0.96472,7.316837 -0.65421,9.725635 -4.26891,6.424466 -11.43501,6.632484 -13.79557,7.645446 M 75.14304,18.287894 C 73.31308,12.397042 67.35891,11.700631 63.05383,11.700631 l -26.61435,0 4.902,15.851639 23.18657,0 c 2.69821,0 5.4929,-0.144709 7.59419,-1.293335 2.90925,-1.522456 4.06994,-4.582444 3.0208,-7.971041 m 5.69188,24.274895 C 79.65916,38.770214 76.24041,36.82569 70.67214,36.82569 l -26.46361,0 4.3895,14.166383 23.73525,0 c 1.95658,0 4.44979,-0.17787 6.34608,-1.510396 2.21585,-1.546575 3.0208,-4.130229 2.15556,-6.918888"
           style="fill:#231f20;fill-opacity:1;fill-rule:nonzero;stroke:none"
           id="path40"
           inkscape:connector-curvature="0" /><path
           d="m 131.02806,61.694193 -6.60536,-20.633059 40.06021,0 6.42447,20.633059 -39.87932,0 z"
           style="fill:#231f20;fill-opacity:1;fill-rule:nonzero;stroke:none"
           id="path42"
           inkscape:connector-curvature="0" /><path
           d="m 531.15773,61.694193 -10.06027,-36.674628 -24.53718,36.674628 -43.03277,0 -19.01413,-61.6941695625 28.91764,0 L 475.9423,39.873317 501.64921,2.34375e-5 l 39.25828,0 L 560,61.694193 l -28.84227,0 z"
           style="fill:#231f20;fill-opacity:1;fill-rule:nonzero;stroke:none"
           id="path44"
           inkscape:connector-curvature="0" /><path
           d="M 405.21046,61.694193 386.21442,2.34375e-5 l 33.80759,0 19.00207,61.6941695625 -33.81362,0 z"
           style="fill:#231f20;fill-opacity:1;fill-rule:nonzero;stroke:none"
           id="path46"
           inkscape:connector-curvature="0" /><path
           d="M 176.35958,61.694193 157.27913,2.34375e-5 l 33.8317,0 12.75246,41.0611105625 37.92274,0 5.29695,-41.0611105625 33.92516,0 L 309.69966,40.47024 313.53445,2.34375e-5 l 37.55494,0 45.34509,61.6941695625 -31.31739,0 -30.02707,-41.823848 -3.07807,41.823848 -29.0322,0 -29.68037,-42.119295 -2.68314,42.119295 -94.25666,0 z"
           style="fill:#231f20;fill-opacity:1;fill-rule:nonzero;stroke:none"
           id="path48"
           inkscape:connector-curvature="0" /></g></g></g></svg>